<?xml version="1.0" encoding="UTF-8"?>
<svg width="18px" height="18px" viewBox="0 0 18 18" version="1.1" xmlns="http://www.w3.org/2000/svg" xmlns:xlink="http://www.w3.org/1999/xlink">
    <title>icon-作品库</title>
    <g id="页面-1" stroke="none" stroke-width="1" fill="none" fill-rule="evenodd">
        <g id="模板中心-物料" transform="translate(-28.000000, -171.000000)">
            <g id="编组-4" transform="translate(16.000000, 160.000000)">
                <g id="icon-作品库" transform="translate(12.000000, 11.000000)">
                    <rect id="矩形" x="0" y="0" width="18" height="18"></rect>
                    <g id="编组" transform="translate(1.500000, 2.250000)" fill="#333333" fill-rule="nonzero">
                        <path d="M1.5,1.5 L1.5,12 L13.5,12 L13.5,3 L7.18935,3 L5.6893425,1.5 L1.5,1.5 Z M7.81065,1.5 L14.25,1.5 C14.664225,1.5 15,1.83579 15,2.25 L15,12.75 C15,13.164225 14.664225,13.5 14.25,13.5 L0.75,13.5 C0.33579,13.5 0,13.164225 0,12.75 L0,0.75 C0,0.33579 0.33579,0 0.75,0 L6.31065,0 L7.81065,1.5 Z" id="形状"></path>
                    </g>
                </g>
            </g>
        </g>
    </g>
</svg>